<?xml version="1.0" standalone="no"?>
<!DOCTYPE svg PUBLIC "-//W3C//DTD SVG 20010904//EN"
 "http://www.w3.org/TR/2001/REC-SVG-20010904/DTD/svg10.dtd">
<svg version="1.0" xmlns="http://www.w3.org/2000/svg"
 width="150.000000pt" height="150.000000pt" viewBox="0 0 150.000000 150.000000"
 preserveAspectRatio="xMidYMid meet">

<g transform="translate(0.000000,150.000000) scale(0.100000,-0.100000)"
fill="#000000" stroke="none">
<path d="M0 750 l0 -750 750 0 750 0 0 750 0 750 -750 0 -750 0 0 -750z m908
557 c183 -53 330 -192 395 -375 29 -80 30 -270 3 -359 -18 -58 -36 -83 -36
-49 0 21 -49 53 -126 82 -68 25 -89 23 -82 -11 2 -10 24 -23 54 -34 140 -47
148 -96 22 -139 -118 -40 -176 -47 -383 -47 -214 0 -318 14 -418 57 -92 40
-79 90 34 125 49 15 59 22 59 41 0 32 -34 29 -119 -14 -53 -26 -73 -42 -77
-60 -10 -37 -19 -19 -44 81 -108 436 290 826 718 702z m-493 -946 c182 -57
485 -55 682 4 28 8 75 31 103 50 l52 35 -19 -30 c-31 -49 -115 -131 -168 -165
-125 -81 -290 -111 -428 -81 -123 28 -209 76 -304 174 -46 46 -83 87 -83 92 0
5 23 -7 51 -26 28 -18 79 -42 114 -53z"/>
<path d="M627 1222 c5 -71 3 -85 -20 -136 l-26 -56 24 -52 c26 -58 45 -155 28
-145 -6 4 -13 22 -16 41 -7 43 -54 140 -79 162 -17 16 -18 15 -18 -25 0 -23
-10 -67 -21 -99 -12 -31 -30 -88 -41 -127 -41 -148 11 -275 141 -344 71 -38
143 -49 205 -31 49 13 110 66 85 74 -70 20 -118 44 -148 73 -36 35 -28 35 20
0 36 -26 134 -48 148 -34 18 18 13 98 -10 144 -11 24 -25 43 -29 43 -5 0 -40
30 -78 68 -59 57 -73 76 -87 125 -11 37 -15 76 -11 105 20 175 20 169 -7 214
-14 24 -34 51 -45 61 -20 18 -20 18 -15 -61z"/>
<path d="M749 1077 c-14 -18 -29 -42 -33 -55 -6 -18 -3 -22 13 -22 25 0 54 50
49 86 -3 24 -3 24 -29 -9z"/>
<path d="M716 972 c-9 -15 15 -97 39 -133 13 -20 49 -56 81 -80 91 -70 124
-163 90 -259 -8 -24 -14 -46 -12 -47 8 -8 87 80 108 119 18 35 23 58 22 123 0
86 -16 130 -69 193 -40 47 -137 92 -201 92 -29 0 -55 -4 -58 -8z"/>
</g>
</svg>
